<svg xmlns="http://www.w3.org/2000/svg" viewBox="0 0 122.87 122.88" style="enable-background:new 0 0 122.87 122.88" xml:space="preserve"><path d="M52.01 110.22c-9.96-1.91-18.86-6.79-25.76-13.68-6.9-6.9-11.77-15.8-13.68-25.77h6.21c1.82 8.28 5.99 15.68 11.78 21.47a43.688 43.688 0 0 0 21.46 11.78v6.2h-.01zm44.3-45.74c-1.68 0-3.04-1.36-3.04-3.04s1.36-3.04 3.04-3.04h23.52c1.68 0 3.04 1.36 3.04 3.04s-1.36 3.04-3.04 3.04H96.31zM64.48 26.57c0 1.68-1.36 3.04-3.04 3.04s-3.04-1.36-3.04-3.04V3.04C58.4 1.36 59.76 0 61.44 0s3.04 1.36 3.04 3.04v23.53zm0 93.27c0 1.68-1.36 3.04-3.04 3.04s-3.04-1.36-3.04-3.04V96.31c0-4 6.08-4 6.08 0v23.53zM3.04 64.48C1.36 64.48 0 63.12 0 61.44s1.36-3.04 3.04-3.04h23.52c1.68 0 3.04 1.36 3.04 3.04s-1.36 3.04-3.04 3.04H3.04zm58.39-17.54c8.01 0 14.5 6.49 14.5 14.5s-6.49 14.5-14.5 14.5-14.5-6.49-14.5-14.5c.01-8.01 6.5-14.5 14.5-14.5zm-48.87 4.98c1.91-9.96 6.79-18.86 13.68-25.76 6.9-6.9 15.8-11.78 25.77-13.69v6.22c-8.28 1.82-15.68 5.99-21.47 11.78-5.78 5.78-9.96 13.17-11.77 21.45h-6.21zm58.3-39.46c9.97 1.91 18.87 6.79 25.77 13.69a49.55 49.55 0 0 1 13.68 25.77h-6.21a43.563 43.563 0 0 0-11.78-21.47 43.532 43.532 0 0 0-21.46-11.78v-6.21zm39.46 58.31c-1.91 9.96-6.79 18.87-13.69 25.77-6.9 6.9-15.8 11.78-25.77 13.69v-6.21c16.55-3.64 29.62-16.69 33.25-33.25h6.21z"/></svg>