<svg aria-hidden="true" style="position:absolute;width:0;height:0;overflow:hidden" xmlns="http://www.w3.org/2000/svg"><defs><symbol id="icon-accurate" viewBox="0 0 32 32"><path  fill="#000" d="M13.544 28.703a12.934 12.934 0 0 1-6.708-3.563 12.928 12.928 0 0 1-3.563-6.711H4.89a11.356 11.356 0 0 0 3.068 5.591 11.356 11.356 0 0 0 5.512 3.053l.076.015v1.615h-.003zm11.537-11.911a.791.791 0 1 1 0-1.584h6.125a.791.791 0 1 1 0 1.584h-6.125zm-8.289-9.873a.791.791 0 1 1-1.584 0V.791a.791.791 0 1 1 1.584 0v6.128zm0 24.289a.791.791 0 1 1-1.584 0V25.08c0-1.042 1.583-1.042 1.583 0v6.128zm-16-14.416a.791.791 0 1 1 0-1.584h6.125a.791.791 0 1 1 0 1.584H.792zm15.205-4.568a3.775 3.775 0 1 1 0 7.552 3.775 3.775 0 1 1 0-7.552zM3.271 13.521a12.934 12.934 0 0 1 3.563-6.708 12.924 12.924 0 0 1 6.711-3.565v1.62a11.356 11.356 0 0 0-5.591 3.068 11.323 11.323 0 0 0-3.065 5.586H3.272zM18.453 3.245a12.924 12.924 0 0 1 6.711 3.565 12.878 12.878 0 0 1 3.549 6.629l.013.082h-1.617a11.37 11.37 0 0 0-3.067-5.591 11.314 11.314 0 0 0-5.513-3.053l-.076-.014V3.246zM28.729 18.43c-.497 2.594-1.768 4.914-3.565 6.711s-4.115 3.068-6.711 3.565v-1.617a11.396 11.396 0 0 0 8.659-8.659h1.617z"/></symbol><symbol id="icon-planning" viewBox="0 0 33 32"><path fill="#000" d="M24.555 15.44a8.284 8.284 0 1 0 0 16.568 8.284 8.284 0 0 0 0-16.568zM18.676 1.085c0-.596.588-1.085 1.336-1.085s1.336.486 1.336 1.085v4.749c0 .596-.588 1.085-1.336 1.085s-1.336-.486-1.336-1.085V1.085zM3.605 15.368c-.078 0-.144-.329-.144-.735s.059-.73.144-.73h3.61c.075 0 .142.329.142.73s-.059.735-.142.735zm5.756 0c-.075 0-.142-.329-.142-.735s.059-.738.134-.738h3.621c.075 0 .142.329.142.73s-.059.735-.142.735zm5.759 0c-.075 0-.142-.329-.142-.735s.059-.73.142-.73h3.613c.075 0 .142.326.142.727-.399.25-.739.493-1.064.754l.022-.017zM3.613 19.569c-.075 0-.144-.329-.144-.735s.059-.732.144-.732h3.602c.075 0 .142.329.142.732s-.059.735-.142.735zm5.756 0c-.075 0-.142-.329-.142-.735s.059-.732.142-.732h3.613c.075 0 .142.329.142.732s-.059.735-.142.735zm-5.748 4.214c-.075 0-.144-.329-.144-.732s.061-.735.144-.735h3.61c.075 0 .142.329.142.735s-.059.732-.142.732zm5.756 0c-.075 0-.142-.329-.142-.732s.059-.735.142-.735h3.613c.075 0 .142.329.142.735s-.059.732-.142.732zm-2.6-22.698C6.777.489 7.365 0 8.1 0s1.323.486 1.323 1.085v4.749c0 .596-.591 1.085-1.323 1.085s-1.323-.486-1.323-1.085V1.085zm-5.321 9.294h25.21V4.914a.671.671 0 0 0-.668-.668h-2.405l-.044.001a.735.735 0 1 1 0-1.47l.046.001h-.002 2.405c1.181 0 2.138.957 2.138 2.138v8.677a10.127 10.127 0 0 0-1.418-.387l-.07-.012v-1.355H1.457v14.163c.005.177.08.336.198.451a.669.669 0 0 0 .483.206h11.966c.156.582.332 1.075.542 1.55l-.026-.067H2.134a2.135 2.135 0 0 1-1.506-.62 2.098 2.098 0 0 1-.628-1.5v-.019.001V4.917c0-1.181.957-2.138 2.138-2.138h2.581a.736.736 0 0 1 .003 1.467H2.136a.656.656 0 0 0-.467.195.678.678 0 0 0-.195.473v5.465h-.016zm10.085-6.146-.044.001a.735.735 0 1 1 0-1.47l.046.001h-.002 4.917l.044-.001a.735.735 0 1 1 0 1.47l-.046-.001h.002zm10.526 18.08 1.558 1.483 3.231-3.273c.267-.267.433-.486.762-.15l1.069 1.09c.347.345.329.534 0 .868l-4.455 4.39c-.692.679-.572.721-1.277.024l-2.672-2.672a.31.31 0 0 1 .026-.483l.001-.001 1.235-1.277c.184-.195.334-.184.534 0z"/></symbol><symbol id="icon-time" viewBox="0 0 33 32"><path d="M11.748 24.751 19 31.99l13.941-13.941-7.252-7.239-13.941 13.941zm2.853-23.105C7.448 1.65 1.651 7.45 1.651 14.603c0 5.017 2.851 9.368 7.022 11.521l.072.034c.157.389.38.72.657.997l1.609 1.609C4.642 27.1.018 21.398.018 14.616.018 6.552 6.555.015 14.619.015c5.697 0 10.632 3.263 13.038 8.021l.038.084a2.924 2.924 0 0 0-2.178-.48l.017-.002C23.197 4.013 19.18 1.646 14.61 1.646h-.009zm-.751 11.467a1.657 1.657 0 0 0-.687.644l-.004.008h-2.354a.633.633 0 0 0-.972-.747l.001-.001-1.397 1.072a.636.636 0 0 0-.247.496c.002.201.097.38.245.495l.001.001 1.397 1.072a.631.631 0 0 0 .969-.752l.002.004h2.354a1.668 1.668 0 1 0 2.376-2.219l-.006-.004-.021-3.217a.633.633 0 0 0 .748-.98l.001.001-1.113-1.373a.629.629 0 0 0-.468-.236H14.639a.633.633 0 0 0-.516.266l-.001.002-1.048 1.421a.633.633 0 0 0 .75.961l-.004.002.019 3.059zm5.515-8.169a.703.703 0 0 1 1.215.703l.002-.004-.536.909a.703.703 0 0 1-1.215-.703l-.002.004.536-.909zM5.643 20.582a.702.702 0 0 1-.702-1.215l.003-.002.909-.536a.702.702 0 0 1 .702 1.215l-.003.002-.909.536zm-1.788-5.276a.705.705 0 0 1 0-1.41h1.048a.705.705 0 0 1 0 1.41zm1.091-5.47a.702.702 0 1 1 .699-1.215l-.003-.002.909.536a.702.702 0 1 1-.703 1.213l.003.002-.906-.536zm3.673-4.193a.702.702 0 0 1 1.215-.702l.002.003.536.909a.701.701 0 0 1-1.212.703l-.002-.003-.536-.909zm5.276-1.788a.705.705 0 0 1 1.41 0v1.048a.705.705 0 0 1-1.41 0V3.855zm6.322 15.416a3.016 3.016 0 1 1 0 4.268c-.547-.546-.886-1.3-.886-2.134s.339-1.588.886-2.134zm-5.035 4.254 9.273-9.271a1.515 1.515 0 0 0 2.144 0l2.863 2.866a1.509 1.509 0 0 0 0 2.144l-9.273 9.268a1.515 1.515 0 0 0-2.144 0l-2.863-2.866a1.515 1.515 0 0 0 0-2.144z"/></symbol><symbol id="icon-technologies" viewBox="0 0 42 32"><path d="M31.069 7.482a1.38 1.38 0 0 0-1.379 1.362v21.808c0 .762.617 1.379 1.379 1.379h9.933c.762 0 1.379-.617 1.379-1.379V8.861c0-.762-.617-1.379-1.379-1.379h-9.933zM9.847 17.24a.579.579 0 1 0 0-1.158H4.089a.579.579 0 1 0 0 1.158zm0-3.293a.579.579 0 1 0 0-1.158H4.089a.579.579 0 1 0 0 1.158zm7.179 6.589a.579.579 0 1 0 0-1.158H4.089a.579.579 0 1 0 0 1.158zM4.196 1.496v.938a.5.5 0 0 0 .496.5h.773c.086.372.213.7.379 1.003l-.01-.02-.596.593a.5.5 0 0 0 0 .706l.738.738a.496.496 0 0 0 .706 0l.559-.545c.271.179.582.333.913.443l.028.008v.838a.5.5 0 0 0 .5.5h1.034a.504.504 0 0 0 .5-.5v-.783c.372-.087.7-.213 1.003-.379l-.021.01.593.593a.496.496 0 0 0 .706 0l.738-.738a.5.5 0 0 0 0-.69l-.534-.576c.177-.271.325-.583.427-.915l.007-.027h.844a.5.5 0 0 0 .5-.5V1.659a.624.624 0 0 0-.025-.163l.001.004h21.032a.928.928 0 0 1 .924.909v1.332h1.379v-2.71a1.052 1.052 0 0 0-1.033-1.034H1.032A1.052 1.052 0 0 0-.002 1.03v24.178c0 .571.463 1.034 1.034 1.034h25.204v-3.986H2.297a.932.932 0 0 1-.921-.927V2.41a.928.928 0 0 1 .92-.917zm7.117 0a2.05 2.05 0 1 1-3.951-.015l-.003.014zm11.516 3.555a.548.548 0 0 0-.782 0l-.607.603.018.011a4.366 4.366 0 0 0-1.076-.493v-.921a.558.558 0 0 0-.555-.555h-1.159a.555.555 0 0 0-.551.555v.855l-.03.006a4.317 4.317 0 0 0-1.063.404l-.659-.662a.548.548 0 0 0-.782 0l-.821.817a.56.56 0 0 0 0 .786l.607.603.011-.018c-.205.323-.37.673-.497 1.077h-.931a.558.558 0 0 0-.555.555v1.159a.558.558 0 0 0 .555.555h.855l.006.03c.09.383.23.746.401 1.06l-.658.658a.56.56 0 0 0 0 .786l.821.817a.557.557 0 0 0 .782 0l.603-.603-.018-.011c.324.205.676.369 1.08.493v.931c0 .305.247.553.552.555h1.165a.555.555 0 0 0 .555-.555v-.855l.028-.005a4.13 4.13 0 0 0 1.061-.401l.662.659a.548.548 0 0 0 .782 0l.817-.821a.548.548 0 0 0 0-.782l-.61-.597-.01.017c.206-.322.37-.673.493-1.076h.931a.558.558 0 0 0 .555-.559V8.963a.558.558 0 0 0-.555-.551h-.852l-.006-.03a4.295 4.295 0 0 0-.404-1.06l.659-.659a.552.552 0 0 0 0-.786l-.817-.817zM19.101 7.13h.003a2.279 2.279 0 1 1-2.279 2.279v-.004A2.28 2.28 0 0 1 19.1 7.129zm-4.965 20.577c0 1.914-1.059 3.207-2.538 4.279h14.588c-1.848-1.176-2.514-2.634-2.538-4.279h-9.513zM39.385 13.13v.565h.99v-.565h-.99zm-3.351 13.222a1.486 1.486 0 1 1-1.486 1.486c0-.821.665-1.486 1.486-1.486zm-4.482-14.515h8.965c.156 0 .283.127.283.283v1.541a.286.286 0 0 1-.283.286h-8.965a.283.283 0 0 1-.283-.283v-1.545c0-.156.127-.283.283-.283z"/></symbol></defs></svg>