<svg data-name="Layer 1" xmlns="http://www.w3.org/2000/svg" viewBox="0 0 122.88 119.36"><path d="m43.82 92.32 52-52 27.05 27-52 52-27.05-27ZM54.46 6.14a48.33 48.33 0 0 0-21.84 91.43 11 11 0 0 0 2.45 3.72l6 6a54.46 54.46 0 1 1 62.23-77 11 11 0 0 0-8.06-1.8A48.32 48.32 0 0 0 54.46 6.14Zm-2.8 42.77a6.17 6.17 0 0 0-2.58 2.43H40.3a2.36 2.36 0 0 0-3.62-2.79l-5.21 4a2.36 2.36 0 0 0-.92 1.85 2.36 2.36 0 0 0 .92 1.85l5.21 4a2.36 2.36 0 0 0 3.62-2.79h8.78a6.22 6.22 0 1 0 8.84-8.29l-.08-12a2.36 2.36 0 0 0 2.79-3.65l-4.15-5.12a2.34 2.34 0 0 0-1.75-.88h-.06a2.36 2.36 0 0 0-2 1l-3.91 5.3a2.36 2.36 0 0 0 2.78 3.59l.07 11.41Zm20.57-30.47a2.62 2.62 0 0 1 4.54 2.61l-2 3.39a2.62 2.62 0 0 1-4.54-2.61l2-3.39ZM21.05 76.77a2.62 2.62 0 0 1-2.61-4.54l3.39-2a2.62 2.62 0 0 1 2.61 4.54l-3.39 2Zm-6.67-19.68a2.63 2.63 0 1 1 0-5.26h3.91a2.63 2.63 0 0 1 0 5.26Zm4.07-20.4a2.62 2.62 0 1 1 2.6-4.54l3.39 2a2.61 2.61 0 1 1-2.61 4.53l-3.38-2Zm13.7-15.64a2.62 2.62 0 0 1 4.54-2.61l2 3.39a2.61 2.61 0 1 1-4.53 2.61l-2-3.39Zm19.68-6.67a2.63 2.63 0 0 1 5.26 0v3.91a2.63 2.63 0 0 1-5.26 0v-3.91Zm23.58 57.5a11.25 11.25 0 1 1 0 15.92 11.24 11.24 0 0 1 0-15.92ZM56.63 87.75l34.59-34.58a5.66 5.66 0 0 0 8 0l10.68 10.69a5.64 5.64 0 0 0 0 8l-34.59 34.57a5.66 5.66 0 0 0-8 0L56.63 95.74a5.66 5.66 0 0 0 0-8Z" style="fill-rule:evenodd"/></svg>