<svg data-name="Layer 1" xmlns="http://www.w3.org/2000/svg" viewBox="0 0 122.88 92.81"><path d="M90.11 21.7h28.81a4 4 0 0 1 4 4v63.2a4 4 0 0 1-4 4H90.11a4 4 0 0 1-4-4V25.65a4 4 0 0 1 4-3.95ZM11.86 50a1.68 1.68 0 1 1 0-3.36h16.7a1.68 1.68 0 0 1 0 3.36Zm0-9.55a1.68 1.68 0 1 1 0-3.36h16.7a1.68 1.68 0 1 1 0 3.36Zm0 19.11a1.68 1.68 0 1 1 0-3.36h37.52a1.68 1.68 0 0 1 0 3.36Zm.31-55.22v2.72a1.45 1.45 0 0 0 1.44 1.45h2.24a11.23 11.23 0 0 0 1.07 2.85l-1.73 1.72a1.46 1.46 0 0 0 0 2.05l2.14 2.14a1.44 1.44 0 0 0 2.05 0L21 15.69A11.59 11.59 0 0 0 23.73 17v2.43a1.45 1.45 0 0 0 1.45 1.45h3a1.46 1.46 0 0 0 1.45-1.45v-2.27a11.38 11.38 0 0 0 2.85-1.07l1.72 1.72a1.44 1.44 0 0 0 2.05 0l2.14-2.14a1.45 1.45 0 0 0 0-2L36.84 12a10.86 10.86 0 0 0 1.26-2.73h2.44A1.45 1.45 0 0 0 42 7.82v-3a1.77 1.77 0 0 0-.07-.46h61A2.69 2.69 0 0 1 105.61 7v3.86h4V3a3.05 3.05 0 0 0-3-3H3a3.05 3.05 0 0 0-3 3v70.12a3 3 0 0 0 3 3h73.1V64.56H6.67A2.7 2.7 0 0 1 4 61.87V7a2.69 2.69 0 0 1 2.67-2.66Zm20.64 0a5.95 5.95 0 1 1-11.47 0Zm33.4 10.34 2.37 2.37a1.61 1.61 0 0 1 0 2.28l-1.91 1.91a12.64 12.64 0 0 1 1.19 3.16h2.47a1.62 1.62 0 0 1 1.61 1.6v3.36A1.62 1.62 0 0 1 70.33 31h-2.7a12.55 12.55 0 0 1-1.4 3.07L68 35.8a1.6 1.6 0 0 1 0 2.27l-2.37 2.38a1.6 1.6 0 0 1-2.27 0l-1.92-1.91a12.24 12.24 0 0 1-3.16 1.18v2.48a1.61 1.61 0 0 1-1.61 1.61h-3.38a1.61 1.61 0 0 1-1.6-1.61v-2.7a12.83 12.83 0 0 1-3.08-1.4l-1.75 1.75a1.62 1.62 0 0 1-2.27 0l-2.38-2.37a1.63 1.63 0 0 1 0-2.28l1.91-1.91a12.76 12.76 0 0 1-1.18-3.16h-2.48a1.62 1.62 0 0 1-1.61-1.61v-3.36a1.62 1.62 0 0 1 1.61-1.61h2.7a13 13 0 0 1 1.41-3.07l-1.76-1.75a1.63 1.63 0 0 1 0-2.28l2.38-2.37a1.6 1.6 0 0 1 2.27 0L49.37 16a12.86 12.86 0 0 1 3.17-1.19v-2.48a1.61 1.61 0 0 1 1.6-1.61h3.36a1.62 1.62 0 0 1 1.61 1.61V15a12.76 12.76 0 0 1 3.07 1.4l1.76-1.75a1.6 1.6 0 0 1 2.27 0Zm-10.81 6a6.61 6.61 0 1 1-6.6 6.6 6.61 6.61 0 0 1 6.6-6.6ZM41 80.36h27.59c.07 4.77 2 9 7.36 12.41H33.64C37.93 89.66 41 85.91 41 80.36Zm73.23-42.28h2.87v1.64h-2.87v-1.64Zm-9.72 38.35a4.31 4.31 0 1 1-4.31 4.31 4.31 4.31 0 0 1 4.31-4.31Zm-13-42.1h26a.82.82 0 0 1 .82.82v4.47a.83.83 0 0 1-.82.83h-26a.82.82 0 0 1-.82-.82v-4.48a.82.82 0 0 1 .82-.82Z" style="fill-rule:evenodd"/></svg>